<!DOCTYPE svg PUBLIC "-//W3C//DTD SVG 1.1//EN" "http://www.w3.org/Graphics/SVG/1.1/DTD/svg11.dtd">
<!-- Uploaded to: SVG Repo, www.svgrepo.com, Transformed by: SVG Repo Mixer Tools -->
<svg fill="#e36809" height="64px" width="64px" version="1.1" id="Layer_1" xmlns="http://www.w3.org/2000/svg" xmlns:xlink="http://www.w3.org/1999/xlink" viewBox="-26.4 -26.4 382.80 382.80" xml:space="preserve" stroke="#e36809" transform="rotate(180)" stroke-width="0.00329998">
<g id="SVGRepo_bgCarrier" stroke-width="0"/>
<g id="SVGRepo_tracerCarrier" stroke-linecap="round" stroke-linejoin="round"/>
<g id="SVGRepo_iconCarrier"> <g id="XMLID_93_"> <path id="XMLID_102_" d="M325.605,54.391L275.605,4.393c-5.857-5.857-15.355-5.858-21.213,0L134.396,124.39 c-0.001,0.001-0.002,0.002-0.003,0.003c-0.001,0.001-0.002,0.002-0.003,0.003l-49.997,49.997 c-2.813,2.813-4.394,6.628-4.394,10.606c0,3.979,1.58,7.794,4.394,10.606l50,50c2.813,2.813,6.628,4.394,10.606,4.394 s7.794-1.581,10.606-4.394l49.994-49.995c0.002-0.002,0.004-0.003,0.006-0.005c0.002-0.002,0.004-0.004,0.005-0.006L325.605,75.605 c2.813-2.813,4.393-6.628,4.393-10.606C329.998,61.02,328.418,57.205,325.605,54.391z M144.999,213.786l-28.787-28.787 l28.787-28.787l28.787,28.787L144.999,213.786z M194.999,163.786l-28.787-28.787l98.787-98.786l28.786,28.785L194.999,163.786z"/> <path id="XMLID_106_" d="M56.306,125.462c-5.857-5.858-15.355-5.858-21.213,0c-5.858,5.858-5.858,15.355,0,21.213l14.937,14.937 c2.929,2.929,6.768,4.394,10.606,4.394c3.839,0,7.678-1.464,10.606-4.394c5.858-5.858,5.858-15.355,0-21.213L56.306,125.462z"/> <path id="XMLID_107_" d="M189.6,258.755c-5.859-5.857-15.354-5.857-21.214,0.001c-5.857,5.858-5.856,15.355,0.001,21.213 l14.938,14.937c2.93,2.929,6.768,4.393,10.606,4.393c3.839,0,7.678-1.465,10.607-4.393c5.857-5.858,5.856-15.355-0.001-21.213 L189.6,258.755z"/> <path id="XMLID_108_" d="M51.124,210.184c0-8.284-6.716-15-15-15H15c-8.284,0-15,6.716-15,15s6.716,15,15,15h21.124 C44.408,225.184,51.124,218.468,51.124,210.184z"/> <path id="XMLID_109_" d="M119.815,278.874L119.815,278.874c-8.284,0-15.001,6.715-15.001,15l-0.001,21.124 c0,8.284,6.715,15,14.999,15h0.001c8.283,0,15-6.715,15-14.999l0.001-21.124C134.814,285.59,128.1,278.875,119.815,278.874z"/> <path id="XMLID_110_" d="M50.029,258.755l-14.938,14.937c-5.857,5.858-5.858,15.355-0.001,21.213 c2.93,2.929,6.769,4.393,10.607,4.393c3.838,0,7.678-1.464,10.606-4.393l14.938-14.937c5.857-5.858,5.858-15.355,0.001-21.213 C65.385,252.898,55.888,252.898,50.029,258.755z"/> </g> </g>
</svg>